<svg viewBox="0 0 1024 1024" xmlns="http://www.w3.org/2000/svg" aria-hidden="true" role="img" class="sc-eCImPb fTfLox sc-bkkeKt hfatrO"><title>Un POTIT panier</title><path d="M938.883 592.574l84.042-369.775c6.068-26.698-14.227-52.121-41.609-52.121h-698.269l-16.295-79.662c-4.061-19.856-21.532-34.115-41.8-34.115h-182.273c-23.565 0-42.666 19.102-42.666 42.666v28.444c0 23.564 19.102 42.666 42.666 42.666h124.235l124.883 610.546c-29.877 17.183-50.009 49.397-50.009 86.336 0 54.981 44.572 99.552 99.554 99.552s99.554-44.571 99.554-99.552c0-27.866-11.461-53.043-29.908-71.113h372.704c-18.445 18.070-29.907 43.247-29.907 71.113 0 54.981 44.571 99.552 99.552 99.552s99.552-44.571 99.552-99.552c0-39.417-22.91-73.482-56.135-89.606l9.803-43.159c6.068-26.698-14.22-52.121-41.601-52.121h-477.184l-11.635-56.889h521.143c19.92 0 37.191-13.784 41.601-33.21z" class="sc-jRQBWg dujMgD"></path></svg>
