<svg fill="none" viewBox="0 0 52 50" width="185" height="185"><path d="M16.487 43.744c-.615.004-14.472-.154-14.823 2.37-.352 2.523 26.236 6.452 45.295 1.532-.004.005 10.231-4.184-30.472-3.902z" fill="#C0D3E5"></path><path d="M15.48 35.952c-.162.626-.324 1.255-.487 1.88-.334 1.287-.668 2.578-1.006 3.864-.29 1.118-.594 2.233-.87 3.352-.018.079-.04.154-.058.233-.008.035-.017.075-.044.101a.217.217 0 01-.1.049c-1.319.379-2.642.744-3.969 1.11-.334.092-.87.158-1.015.528-.14.361.154.727.523.727h12.16l3.555-12.188-8.688.344z" fill="#F7CDDC"></path><path d="M20.657 47.853H8.454a.629.629 0 01-.515-.268.562.562 0 01-.061-.533c.132-.34.55-.44.883-.52.062-.013.119-.026.172-.044 1.27-.348 2.619-.722 3.968-1.11.03-.009.062-.018.075-.035a.24.24 0 00.03-.075l.057-.234c.19-.753.387-1.515.585-2.255l.29-1.097 1.503-5.783h.044l8.767-.348-.022.075-3.573 12.227zm-5.133-11.848l-1.485 5.704-.29 1.097c-.193.74-.395 1.502-.584 2.255l-.057.233a.308.308 0 01-.058.128c-.04.04-.088.053-.127.066-1.345.383-2.698.758-3.968 1.11-.053.013-.11.026-.172.044-.307.075-.694.167-.804.45a.45.45 0 00.053.427c.096.136.25.22.422.22h12.12l3.52-12.073-8.57.339zM27.443 35.468v12.328h5.52c.875 0 1.754 0 2.628.013.861.014 1.71.097 2.567-.075.479-.096.461-.484.066-.726-1.029-.635-2.075-1.22-3.116-1.824v-9.712h-7.665v-.004z" fill="#F7CDDC"></path><path d="M36.909 47.897c-.25 0-.497-.008-.738-.017-.194-.005-.387-.013-.585-.018-.84-.013-1.652-.013-2.628-.013h-5.572V35.406h7.774v9.739l.804.462c.752.432 1.53.877 2.285 1.343.229.141.347.335.317.511-.018.093-.093.256-.405.322a5.717 5.717 0 01-1.252.114zM27.5 47.74h5.458c.976 0 1.789 0 2.628.013.194.005.391.009.585.018.646.022 1.314.044 1.968-.088.18-.036.295-.12.313-.23.022-.127-.08-.277-.264-.392-.752-.462-1.53-.907-2.281-1.338-.277-.159-.558-.322-.835-.48l-.03-.018v-9.69H27.5v12.205z" fill="#F7CDDC"></path><path d="M23.052 39.81l-8.064-1.977L21.37 45.5l1.683-5.69zM27.38 40.766s2.888-.828 4.936-1.326l-4.935 5.66v-4.334z" fill="#103655"></path><g clip-path="url(#clip0)"><path d="M44.42 15.42l1.816 25.648H6.465L7.571 15.42 25.996 4.501 44.42 15.42z" fill="#F7CDDC"></path><path d="M10.206 1.996a1 1 0 011-1h4.316a1 1 0 011 1V12.47a1 1 0 01-1 1h-4.316a1 1 0 01-1-1V1.996z" fill="#F7CDDC"></path><path d="M19.552 20.118c-.012-.098-.02-.187-.053-.282a1.631 1.631 0 00-.142-.328c-.048-.077-.11-.154-.166-.226a1.199 1.199 0 00-.556-.363 1.014 1.014 0 00-.774.09.983.983 0 00-.35.342c-.046.08-.087.172-.116.26a1.85 1.85 0 00-.056.414c-.007.174-.01.348-.009.527.003.129.032.254.084.371 0 .01 0 .023.003.032.023.223.035.357.143.556.074.135.2.262.329.34a.99.99 0 00.222.099c.084.028.137.047.258.045a1.11 1.11 0 00.273-.03.83.83 0 00.337-.172c.127-.095.236-.2.314-.342.088-.158.153-.335.192-.513.043-.178.073-.364.08-.547.01-.094-.001-.179-.013-.273zM28.899 19.643c-.012-.098-.02-.187-.054-.282a1.627 1.627 0 00-.142-.328c-.047-.077-.108-.154-.165-.226a1.199 1.199 0 00-.556-.363.983.983 0 00-1.123.433c-.047.078-.089.171-.117.26-.038.133-.05.275-.056.413-.007.174-.01.348-.009.526.002.13.032.255.083.372 0 .01 0 .023.004.032.023.223.034.357.143.556.073.135.2.262.329.34.053.037.16.08.221.099.085.028.138.047.258.045a1.11 1.11 0 00.273-.03.829.829 0 00.338-.172c.127-.096.235-.2.314-.341.087-.16.153-.337.191-.514.044-.178.073-.364.08-.547.011-.094 0-.179-.012-.273zM20.263 26.937c3.257.91 6.952 1.024 10.13-.226 2.584-1.017 4.259-3.037 5.287-5.567.176-.433-.172-.952-.589-1.076-.488-.143-.898.147-1.075.584-.828 2.04-2.238 3.704-4.338 4.49-2.822 1.058-6.057.944-8.928.14-1.073-.307-1.565 1.353-.487 1.655z" fill="#103655"></path><path d="M33.4 19.816c.207.406.49.79.83 1.1.192.178.4.343.62.485.22.143.464.255.708.353.195.08.495.023.67-.076.18-.103.358-.305.406-.509.053-.222.048-.471-.078-.67l-.13-.177a.86.86 0 00-.38-.23c-.023-.01-.05-.019-.072-.033.067.033.138.061.204.093a3.326 3.326 0 01-.702-.428l.172.137a3.259 3.259 0 01-.57-.59l.13.176a3.36 3.36 0 01-.3-.483.876.876 0 00-.51-.407.88.88 0 00-.67.076c-.185.116-.353.291-.406.509a.98.98 0 00.078.674z" fill="#103655"></path><path d="M38.382 30.498a2.647 2.647 0 002.64-2.654 2.647 2.647 0 00-2.64-2.653 2.647 2.647 0 00-2.64 2.653 2.647 2.647 0 002.64 2.654zM13.881 30.498a2.647 2.647 0 002.64-2.654 2.647 2.647 0 00-2.64-2.653 2.647 2.647 0 00-2.64 2.653 2.647 2.647 0 002.64 2.654z" fill="#EA663F"></path></g><path fill-rule="evenodd" clip-rule="evenodd" d="M50.65 18.473L25.94 0l-.014.053L1.34 18.419C.9 18.75.664 19.45.817 19.98l1.068 3.718c.153.531.635.694 1.078.363L25.987 6.859 49.064 24.11c.442.331.922.168 1.072-.364l1.044-3.713c.15-.531-.088-1.23-.53-1.561z" fill="#1B7CC0"></path><defs><clipPath id="happy-house"><path fill="#fff" transform="translate(3.89 .996)" d="M0 0h44.213v44.506H0z"></path></clipPath></defs></svg>
