<svg width="130" height="24" xmlns="http://www.w3.org/2000/svg"><path d="M113.949 13.54c0-2.985 2.29-5.071 5.568-5.071 1.75 0 3.397.38 4.277.706l.238.09c.002.059.003.128.003.21v7.233c-1.686 1.5-3.389 2.26-5.064 2.26-2.957 0-5.022-2.232-5.022-5.427zm-12.862 6.155c-1.93 0-2.626-1.157-2.51-2.457 1.317-.015 3.6-.006 5.612 0-.167 1.144-1.507 2.457-3.102 2.457zm-17.55-3.02v.303c-1.681 1.498-3.38 2.31-5.062 2.31-2.956 0-5.02-2.585-5.02-5.78 0-2.985 2.29-5.423 5.567-5.423 1.748 0 3.254.607 4.275 1.06.056.024.16.079.239.124l.002.227v7.18zm-41.03-8.66c2.018 0 4.42 1.051 4.777 4.073.02.169.028.28.022.382h-9.733c.607-2.915 2.702-4.455 4.933-4.455zm-26.698 6.573c-.162.36-.327.691-.493.996-.146-.297-.295-.621-.448-.972-.755-1.732-.69-3.149-.29-3.785.118-.19.3-.384.76-.41.19.015.451.09.684.47.389.635.567 1.985-.213 3.701zm113.295 6.296s-1.67-1.145-1.67-4.175V9.475c0-2.219-.796-2.904-2.47-3.523-1.196-.443-3.255-.916-5.447-.916-5.112 0-8.967 3.657-8.967 8.505 0 .274.015.543.036.81h-2.715c-.015-.175-.074-.427-.113-.649-1.223-4.606-7.712-8.104-8.52-8.523a1.691 1.691 0 00-2.17.543 454.945 454.945 0 00-3.886 5.719c-1.604 2.39-2.99 4.613-4.79 7.07-.396.54-.782.595-1.136.39-.297-.189-.32-.962-.32-2.226V9.621c0-2.217-.827-2.822-2.469-3.522-1.195-.51-2.843-1.093-5.445-1.093-5.458 0-8.966 3.656-8.966 8.503 0 1.281.218 2.481.623 3.56-2.495 1.25-5.819 2.249-8.589 2.174-2.559-.384-4.916-2.518-4.916-5.77 0-2.798 2.25-5.43 5.014-5.43.695 0 1.837.222 2.835.93 1.092.773 2.745.364 3.248-1.264.03-.095-.054-.19-.193-.325-.85-.82-3.287-2.423-5.89-2.423-4.934 0-8.417 3.819-8.417 8.513 0 .894.128 1.746.357 2.55-2.556 1.776-7.326 3.535-10.953 3.268-2.85-.209-4.742-1.848-5.415-3.96h9.113c1.668 0 3.837 0 3.837-2.638 0-4.328-3.373-7.74-8.204-7.74-4.116 0-8.015 3.207-8.348 7.516H30.74c.39-1.86.525-3.892.356-6.059-.112-1.45-.438-2.965-.97-4.501-.01-.03-.027-.054-.038-.082l.003-.008c-.383-.968-1.32-2.718-3.89-1.265a.292.292 0 00-.121.374s1.168 2.4 1.55 5.061c.03.231.06.462.078.689.33 4.26-.617 7.84-2.667 10.08-1.284 1.402-2.953 2.206-4.579 2.206-1.204 0-2.11-.039-2.92-.513.477-.688.932-1.494 1.358-2.433 1.137-2.505 1.14-5.1.012-6.94-.79-1.286-2.07-2.05-3.515-2.095l-.048-.002-.05.002c-1.531.041-2.808.753-3.594 2.005-1.11 1.769-1.09 4.388.051 7.007.38.867.759 1.621 1.147 2.277-1.024.573-2.21.717-3.654.692-2.101-.033-4.943-1.514-5.664-4.67-.012-.056-.025-.11-.036-.166-.026-.133-.045-.272-.064-.41a8.828 8.828 0 01-.05-.486c-.01-.169-.025-.335-.025-.511-.027-1.035.096-1.863.096-1.863a.29.29 0 00-.233-.315C.508 10.026 0 11.754 0 12.856c0 5.822 4.735 9.472 9.196 9.541.114.002.227.003.341.003 1.9 0 3.819-.27 5.578-1.47 1.488 1.168 3.191 1.467 5.347 1.467 2.57 0 5.149-1.205 7.074-3.308.988-1.078 1.778-2.368 2.37-3.82l.004.064h4.35c.762 3.996 3.996 6.686 8.669 7.028.355.027.714.039 1.076.039 4.16 0 8.71-1.656 11.57-3.54l.1.187c1.645 2.063 4.228 3.347 7.242 3.347 2.272 0 4.218-.481 5.863-1.144a23.897 23.897 0 003.545-1.468c1.474 1.611 3.593 2.584 6.15 2.584 1.968 0 3.942-.667 5.818-1.949.306.552.705 1.136 1.194 1.428 1.316.785 4.017.918 5.636-1.292 1.843-2.514 6.702-10.266 7.846-11.935 1.836 1.147 5.276 4.063 5.374 5.73h-6.228c-1.34.026-2.692.57-2.692 3.165 0 2.334 2.202 4.853 5.479 4.853 2.933 0 5.888-1.857 6.795-5.133 1.231.003 2.445.006 3.575.006 1.283 3.098 4.169 5.161 7.699 5.161 1.924 0 3.806-.613 5.62-1.815l.456.585c.631.811 2.006 2.21 4.045.103a.29.29 0 00.012-.389z" fill="#ea663f"/></svg>